<svg id="Layer_1" data-name="Layer 1" xmlns="http://www.w3.org/2000/svg" viewBox="0 0 434.79 145.71"><defs><style>.cls-1,.cls-2,.cls-4{fill:#fff;}.cls-1{fill-rule:evenodd;}.cls-2{font-size:96px;font-family:TradeGothicInline-Bold, Trade Gothic Inline;font-weight:700;}.cls-3{letter-spacing:0em;}.cls-4{font-size:61px;font-family:FrutigerLTStd-Cn, Frutiger LT Std;}.cls-5{letter-spacing:-0.04em;}.cls-6{letter-spacing:-0.05em;}.cls-7{letter-spacing:-0.05em;}</style></defs><title>share-logo2</title><path class="cls-1" d="M532.69,411.7l-18.3,11.69a3.81,3.81,0,0,1-5.87-3.39h0l1-21.88a3.32,3.32,0,0,0-1-2.54,57.32,57.32,0,1,1,26.87,15.69,3.3,3.3,0,0,0-2.71.43ZM516.49,413l13.88-8.86a6.47,6.47,0,0,1,5.5-.78A49.3,49.3,0,0,0,554,405.16q-3.11-2.37-5.92-4.94h0q-1.66-1.52-3.21-3.1a10.63,10.63,0,0,0,2.95-2.53q1.4,1.41,2.88,2.77h0a87,87,0,0,0,8.81,7q1.62-.33,3.21-.75a49.72,49.72,0,0,0,15.63-7.28,43.94,43.94,0,0,0-.69-14.08,73,73,0,0,1-14.21-2,60.11,60.11,0,0,1-10.44,5.66c-.93.39-1.88.76-2.84,1.11a10.72,10.72,0,0,0-1-3.75c.79-.29,1.57-.6,2.34-.92a55.65,55.65,0,0,0,6.85-3.45,144,144,0,0,1-27.09-11.36,59.65,59.65,0,0,0,4.24,10.37,10.59,10.59,0,0,0-3.29,2.07,62.5,62.5,0,0,1-5.66-15,225.56,225.56,0,0,1-20.78-13.5,54.91,54.91,0,0,0-5.49,5.65,49.79,49.79,0,0,0,8.19,26,63.78,63.78,0,0,0,20.35,3.7,10.68,10.68,0,0,0,.31,3.87,66,66,0,0,1-16.64-2.27q1.31,1.49,2.74,2.89a6.49,6.49,0,0,1,2,5.09c-.24,5.54-.47,11.1-.73,16.64Zm64.41-61.08a8.4,8.4,0,1,0-3.08-11.47,8.4,8.4,0,0,0,3.08,11.47ZM524.31,344a8.4,8.4,0,1,0-3.07-11.47A8.39,8.39,0,0,0,524.31,344Zm10.92,51.17a8.4,8.4,0,1,0-3.07-11.47,8.4,8.4,0,0,0,3.07,11.47ZM501.72,343.6c1.29,1,2.57,2,3.86,2.93l.72-.56A59.67,59.67,0,0,1,518,338.91a10.62,10.62,0,0,0,1.47,3.58,55.81,55.81,0,0,0-10.69,6.42q8.54,6.16,16.75,11a58.83,58.83,0,0,1-.42-13.07,10.62,10.62,0,0,0,3.85.54,55,55,0,0,0,.55,13c.11.7.24,1.41.38,2.1a144.16,144.16,0,0,0,29.63,12.82q1.55.45,3.05.84a55.6,55.6,0,0,0,10.28-9.64,120.41,120.41,0,0,0-16.8-29.34c-1.51-.16-3-.29-4.55-.36a75,75,0,0,0-12.32.36,10.81,10.81,0,0,0-.55-3.83,79.14,79.14,0,0,1,13.07-.4l.94.06a97.74,97.74,0,0,0-14.31-13.67,72.11,72.11,0,0,0-4.3,8.26l-.19-.12a10.68,10.68,0,0,0-3.44-1.26,77.18,77.18,0,0,1,4.79-9.19,76,76,0,0,0-8.47-5.15,49.72,49.72,0,0,0-25,31.77Zm65.78,33.61a66.45,66.45,0,0,0,9.24,1.19c-.62-2.52-1.4-5.13-2.32-7.8a58.92,58.92,0,0,1-6.91,6.61Zm13.17,1.25c6.13-.15,11.25-1.53,15.11-4.09a49.28,49.28,0,0,0,3.62-17.29,49.63,49.63,0,0,0-6.1-5.6,10.64,10.64,0,0,0,1-1.51,10.49,10.49,0,0,0,.87-1.91q2.12,1.62,4,3.37a49.7,49.7,0,0,0-13.74-30.18,43.56,43.56,0,0,1,2.61,13.1,10.56,10.56,0,0,0-3.9-.4,40.13,40.13,0,0,0-6-18.93q-1.71-1.19-3.55-2.25a49.37,49.37,0,0,0-26.54-6.62,91.36,91.36,0,0,0-7.65,9.83,103.41,103.41,0,0,1,17.7,17.48A84.33,84.33,0,0,1,576.67,338a10.74,10.74,0,0,0-1.81,3.45,80.83,80.83,0,0,0-13.34-3.58c2.44,3.34,4.68,6.79,6.72,10.26a122,122,0,0,1,7.35,14.72,51.27,51.27,0,0,0,4.82-8.63,10.75,10.75,0,0,0,3.77,1,55.29,55.29,0,0,1-6.92,11.86,95.52,95.52,0,0,1,3.42,11.31ZM593,380.07a36.48,36.48,0,0,1-11.58,2.2,54.24,54.24,0,0,1,.94,10.88,49.65,49.65,0,0,0,10.38-12.62l.26-.46Zm-90.48-31-1.7-1.29q-.27,1.66-.42,3.33,1-1.05,2.13-2Zm28.56-39.32q3.18,1.81,6.19,3.91,2.38-3.55,5.24-7a50.58,50.58,0,0,0-5.56,1.16A48.28,48.28,0,0,0,531.12,309.8Z" transform="translate(-492.45 -290.54)"/><text class="cls-2" transform="translate(120.55 82.46)">SHA<tspan class="cls-3" x="191.33" y="0">R</tspan><tspan x="253.92" y="0">E</tspan></text><text class="cls-4" transform="translate(120.55 130.46) scale(0.9 1)"><tspan class="cls-5">Y</tspan><tspan x="28.85" y="0">OUR</tspan><tspan class="cls-6" x="133.96" y="0"> </tspan><tspan x="145.24" y="0">TR</tspan><tspan class="cls-7" x="203.98" y="0">A</tspan><tspan x="236.25" y="0">VELS</tspan></text></svg>